<svg xmlns="http://www.w3.org/2000/svg" xmlns:xlink="http://www.w3.org/1999/xlink" width="400" zoomAndPan="magnify" viewBox="0 0 300 104.999996" height="140" preserveAspectRatio="xMidYMid meet" version="1.0"><path fill="#c96f4a" d="M 30.019531 5.875 C 26.179688 6.636719 26.152344 6.847656 29.742188 7.785156 C 34.363281 8.988281 37.371094 12.039062 37.371094 15.523438 C 37.371094 16.464844 35.648438 21.652344 33.082031 28.433594 C 27.558594 43.046875 24.378906 51.5 20.285156 62.464844 C 15.015625 76.578125 14.011719 79.019531 12.886719 80.507812 C 11.339844 82.550781 9.253906 84.414062 7.652344 85.175781 C 6.878906 85.546875 6.246094 86.03125 6.246094 86.257812 C 6.246094 86.507812 9.9375 86.671875 15.539062 86.671875 C 20.652344 86.671875 24.832031 86.578125 24.832031 86.464844 C 24.832031 86.347656 24.105469 85.882812 23.210938 85.421875 C 20.132812 83.839844 17.917969 80.550781 17.917969 77.5625 C 17.917969 76.085938 20.507812 68.167969 22.785156 62.679688 L 24.222656 59.222656 L 39.605469 59.109375 C 53.972656 59.003906 55.003906 59.046875 55.234375 59.757812 C 55.941406 61.972656 57.304688 65.8125 57.648438 66.570312 C 57.863281 67.046875 58.929688 69.613281 60.019531 72.277344 C 62.574219 78.515625 65.605469 84.0625 68.949219 88.617188 C 72.878906 93.96875 80.664062 100.054688 86.648438 102.449219 C 89.515625 103.597656 97.675781 103.855469 101.351562 102.914062 C 105.328125 101.894531 105.363281 101.476562 101.453125 101.703125 C 91.230469 102.296875 83.601562 96.929688 76.898438 84.429688 C 74.824219 80.5625 70.96875 71.160156 64.519531 54.25 C 63.566406 51.753906 62.390625 48.738281 61.90625 47.550781 C 61.421875 46.363281 60.578125 44.125 60.03125 42.578125 C 59.488281 41.035156 57.84375 36.65625 56.382812 32.855469 C 54.917969 29.050781 52.960938 23.84375 52.035156 21.289062 C 49.828125 15.203125 48.511719 12.664062 46.328125 10.296875 C 44.488281 8.304688 41.613281 6.582031 39.316406 6.105469 C 36.90625 5.609375 31.980469 5.484375 30.019531 5.875 M 241.714844 6.714844 C 240.820312 6.9375 239.265625 7.554688 238.257812 8.082031 L 236.429688 9.039062 L 238.902344 9.367188 C 240.261719 9.546875 241.917969 9.988281 242.578125 10.351562 C 245.050781 11.703125 245.425781 12.226562 245.621094 14.582031 C 245.796875 16.695312 245.308594 18.160156 238.898438 34.796875 C 235.09375 44.664062 231.292969 54.78125 230.449219 57.277344 C 228.476562 63.121094 222.722656 78.285156 221.839844 79.96875 C 221 81.570312 219.152344 83.320312 217.320312 84.242188 C 213.152344 86.347656 210.953125 84.320312 202.445312 70.535156 C 197.519531 62.550781 191.296875 52.019531 191.273438 51.621094 C 191.261719 51.480469 192.4375 51.039062 193.882812 50.636719 C 197.214844 49.710938 202.003906 47.308594 203.988281 45.566406 C 206.003906 43.792969 207.78125 41.113281 209.007812 37.988281 C 209.800781 35.96875 210.007812 34.601562 210.007812 31.339844 C 210.011719 27.523438 209.914062 27.046875 208.589844 24.566406 C 205.824219 19.386719 201.488281 16.042969 194.28125 13.539062 C 188.714844 11.601562 186.097656 11.347656 169.75 11.164062 C 161.132812 11.066406 154.082031 11.113281 154.082031 11.269531 C 154.082031 11.425781 154.871094 12.261719 155.839844 13.125 C 156.953125 14.121094 157.769531 15.332031 158.074219 16.425781 C 158.742188 18.820312 159.058594 75.773438 158.421875 79.203125 C 157.898438 82.039062 156.257812 84.398438 154.160156 85.34375 C 153.402344 85.683594 152.785156 86.121094 152.785156 86.316406 C 152.785156 86.511719 158.035156 86.640625 164.457031 86.601562 C 170.875 86.5625 176.125 86.390625 176.125 86.222656 C 176.125 86.050781 175.53125 85.664062 174.804688 85.363281 C 173.039062 84.632812 171.554688 82.597656 170.90625 80.027344 C 170.558594 78.632812 170.363281 73.734375 170.335938 65.546875 L 170.292969 53.171875 L 180.171875 53.171875 L 182.820312 57.492188 C 184.277344 59.871094 187.390625 64.929688 189.738281 68.730469 C 192.089844 72.535156 195.351562 77.980469 196.992188 80.832031 C 198.632812 83.683594 200.203125 86.160156 200.480469 86.335938 C 201.230469 86.816406 229.726562 86.746094 229.726562 86.265625 C 229.726562 86.046875 229.371094 85.75 228.941406 85.613281 C 228.507812 85.476562 227.582031 84.769531 226.890625 84.046875 C 225.75 82.855469 225.636719 82.472656 225.703125 80.054688 C 225.78125 77.410156 226.875 74.015625 231.226562 62.894531 L 232.664062 59.222656 L 248.214844 59.109375 C 260.324219 59.019531 263.859375 59.117188 264.203125 59.539062 C 264.445312 59.839844 265.65625 62.90625 266.890625 66.355469 C 268.128906 69.800781 269.613281 73.945312 270.195312 75.566406 C 272.34375 81.566406 271.90625 84.230469 268.546875 85.574219 C 267.640625 85.933594 266.902344 86.335938 266.902344 86.460938 C 266.902344 86.585938 272.058594 86.667969 278.359375 86.640625 C 288.824219 86.597656 291.332031 86.347656 288.945312 85.589844 C 287.617188 85.167969 285.527344 83.253906 284.34375 81.375 C 283.234375 79.621094 279.308594 70.257812 277.429688 64.894531 C 274.789062 57.347656 273.394531 53.449219 272.617188 51.441406 C 272.15625 50.253906 270.492188 45.875 268.925781 41.714844 C 258.675781 14.511719 257.933594 12.789062 255.296875 10.015625 C 252.835938 7.429688 250.804688 6.570312 246.800781 6.429688 C 244.902344 6.363281 242.613281 6.492188 241.714844 6.714844 M 77.136719 11.308594 C 77.136719 11.460938 77.921875 12.261719 78.882812 13.082031 C 79.839844 13.902344 81.046875 15.382812 81.5625 16.367188 C 82.605469 18.359375 82.566406 17.5 82.929688 49.0625 C 83.128906 66.480469 83.414062 68.6875 86.207031 74.351562 C 89.484375 81.003906 96.015625 86.179688 102.53125 87.292969 C 110.503906 88.65625 117.375 88.828125 121.429688 87.773438 C 130.84375 85.320312 137.746094 78.5 140.058594 69.355469 C 140.789062 66.476562 140.859375 64.273438 141.277344 31.125 C 141.460938 16.578125 141.589844 15.53125 143.550781 12.890625 C 144.113281 12.132812 144.570312 11.402344 144.570312 11.269531 C 144.570312 11.132812 142.140625 11.023438 139.167969 11.023438 C 135.855469 11.023438 133.765625 11.191406 133.765625 11.457031 C 133.765625 11.695312 133.953125 11.890625 134.183594 11.890625 C 134.410156 11.890625 135.269531 12.476562 136.089844 13.199219 C 138.5 15.316406 138.628906 16.953125 138.429688 43.226562 L 138.253906 66.136719 L 137.0625 70.019531 C 135.636719 74.664062 134.175781 77.472656 132.09375 79.554688 C 130.035156 81.613281 126.351562 83.671875 123.578125 84.316406 C 120.160156 85.113281 111.566406 85.097656 108.507812 84.292969 C 101.597656 82.46875 97.273438 77.949219 95.230469 70.421875 C 94.355469 67.195312 94.292969 65.792969 94.105469 45.597656 C 93.878906 21.308594 94.121094 17.460938 96.046875 14.742188 C 96.703125 13.816406 97.867188 12.726562 98.632812 12.316406 C 99.398438 11.910156 99.902344 11.453125 99.75 11.300781 C 99.382812 10.933594 77.136719 10.941406 77.136719 11.308594 M 170.585938 13.128906 C 170.128906 13.417969 170.039062 17.070312 170.121094 31.945312 C 170.179688 42.097656 170.386719 50.503906 170.582031 50.625 C 171.328125 51.085938 182.515625 50.867188 185.164062 50.339844 C 187.171875 49.941406 188.742188 49.242188 190.859375 47.800781 C 196.421875 44.019531 198.539062 40.089844 198.917969 32.855469 C 199.199219 27.515625 198.417969 24.082031 196.148438 20.660156 C 193.417969 16.546875 189.660156 14.378906 183.476562 13.363281 C 179.453125 12.699219 171.492188 12.554688 170.585938 13.128906 M 38.882812 19.34375 C 38.777344 19.644531 37.011719 24.457031 34.957031 30.042969 C 28.089844 48.714844 25.679688 55.328125 25.582031 55.765625 C 25.515625 56.042969 30.410156 56.234375 39.421875 56.308594 C 50.429688 56.398438 53.363281 56.308594 53.363281 55.878906 C 53.363281 55.300781 51.820312 50.894531 48.257812 41.28125 C 47.066406 38.074219 45.097656 32.722656 43.875 29.394531 C 40.636719 20.554688 39.90625 18.804688 39.464844 18.804688 C 39.25 18.804688 38.984375 19.046875 38.882812 19.34375 M 247.644531 19.777344 C 247.304688 20.886719 246.863281 22.042969 238.296875 44.09375 C 234.53125 53.785156 234.050781 55.105469 234.050781 55.769531 C 234.050781 56.324219 235.96875 56.410156 248.316406 56.410156 C 260.699219 56.410156 262.582031 56.328125 262.582031 55.765625 C 262.582031 55.160156 257.773438 42.105469 252.632812 28.746094 C 251.394531 25.539062 250.066406 21.988281 249.675781 20.863281 C 248.90625 18.648438 248.117188 18.226562 247.644531 19.777344 " fill-opacity="1" fill-rule="evenodd"/></svg>