<svg xmlns="http://www.w3.org/2000/svg" viewBox="0 0 320 120" preserveAspectRatio="xMidYMid meet">
  <!-- AURA letters in white -->
  <g transform="scale(0.25) translate(-50, -20)">
    <path fill="#ffffff" d="M 123.453125 29.214844 C 104.359375 33.011719 104.207031 34.0625 122.058594 38.714844 C 145.039062 44.695312 159.988281 59.867188 159.988281 77.199219 C 159.988281 81.878906 151.425781 107.667969 138.679688 141.386719 C 111.203125 214.058594 95.402344 256.078125 75.042969 310.59375 C 48.832031 380.777344 43.859375 392.914062 38.265625 400.304688 C 30.566406 410.476562 20.191406 419.730469 12.222656 423.527344 C 8.382812 425.363281 5.238281 427.78125 5.238281 428.90625 C 5.238281 430.140625 23.589844 430.957031 51.449219 430.957031 C 76.863281 430.957031 97.660156 430.492188 97.660156 429.925781 C 97.660156 429.359375 94.035156 427.03125 89.597656 424.75 C 74.292969 416.875 63.269531 400.519531 63.269531 385.671875 C 63.269531 378.320312 76.144531 338.964844 87.476562 311.667969 L 94.617188 294.472656 L 171.105469 293.910156 C 242.554688 293.382812 247.675781 293.59375 248.8125 297.132812 C 252.335938 308.148438 259.105469 327.25 260.8125 331.011719 C 261.886719 333.378906 267.199219 346.144531 272.617188 359.382812 C 285.3125 390.410156 300.378906 417.984375 317.003906 440.628906 C 336.542969 467.238281 375.265625 497.5 405.011719 509.414062 C 419.265625 515.121094 459.847656 516.398438 478.125 511.714844 C 497.890625 506.652344 498.066406 504.582031 478.636719 505.707031 C 427.792969 508.652344 389.859375 481.960938 356.546875 419.816406 C 346.234375 400.578125 327.0625 353.839844 294.992188 269.757812 C 290.257812 257.34375 284.40625 242.351562 281.992188 236.441406 C 279.578125 230.53125 275.386719 219.410156 272.675781 211.726562 C 269.96875 204.042969 261.800781 182.28125 254.523438 163.367188 C 247.246094 144.453125 237.519531 118.574219 232.914062 105.859375 C 221.945312 75.609375 215.390625 62.984375 204.542969 51.214844 C 195.394531 41.292969 181.082031 32.742188 169.660156 30.375 C 157.691406 27.894531 133.1875 27.277344 123.453125 29.214844 M 1176.050781 33.398438 C 1171.597656 34.511719 1163.859375 37.570312 1158.855469 40.1875 L 1149.753906 44.945312 L 1162.058594 46.578125 C 1168.824219 47.472656 1177.042969 49.675781 1180.328125 51.472656 C 1192.628906 58.203125 1194.496094 60.800781 1195.46875 72.519531 C 1196.339844 83.019531 1193.917969 90.304688 1162.027344 173.039062 C 1143.121094 222.097656 1124.21875 272.390625 1120.027344 284.800781 C 1110.207031 313.867188 1081.601562 389.269531 1077.214844 397.640625 C 1073.042969 405.605469 1063.851562 414.300781 1054.753906 418.890625 C 1034.011719 429.351562 1023.078125 419.277344 980.78125 350.722656 C 956.296875 311.035156 925.359375 258.664062 925.230469 256.675781 C 925.1875 255.984375 931.023438 253.78125 938.203125 251.785156 C 954.78125 247.179688 978.589844 235.230469 988.449219 226.578125 C 998.488281 217.761719 1007.316406 204.4375 1013.421875 188.890625 C 1017.363281 178.859375 1018.386719 172.0625 1018.394531 155.84375 C 1018.410156 136.851562 1017.917969 134.496094 1011.328125 122.152344 C 997.589844 96.402344 976.035156 79.785156 940.195312 67.324219 C 912.503906 57.691406 899.503906 56.433594 818.222656 55.511719 C 775.371094 55.027344 740.308594 55.265625 740.308594 56.046875 C 740.308594 56.824219 744.238281 60.980469 749.042969 65.277344 C 754.578125 70.230469 758.65625 76.242188 760.167969 81.691406 C 763.484375 93.597656 765.046875 376.761719 761.894531 393.816406 C 759.289062 407.917969 751.136719 419.65625 740.691406 424.359375 C 736.933594 426.050781 733.859375 428.226562 733.859375 429.195312 C 733.859375 430.164062 759.972656 430.800781 791.890625 430.609375 C 823.808594 430.417969 849.921875 429.570312 849.921875 428.722656 C 849.921875 427.875 846.964844 425.953125 843.34375 424.453125 C 834.570312 420.820312 827.1875 410.707031 823.972656 397.917969 C 822.230469 390.988281 821.265625 366.628906 821.125 325.914062 L 820.90625 264.382812 L 870.042969 264.382812 L 883.207031 285.878906 C 890.445312 297.699219 905.925781 322.84375 917.605469 341.757812 C 929.289062 360.671875 945.519531 387.75 953.679688 401.929688 C 961.835938 416.109375 969.636719 428.425781 971.011719 429.300781 C 974.75 431.679688 1116.441406 431.339844 1116.441406 428.949219 C 1116.441406 427.847656 1114.675781 426.386719 1112.519531 425.703125 C 1110.363281 425.019531 1105.777344 421.511719 1102.328125 417.914062 C 1096.65625 411.992188 1096.089844 410.089844 1096.433594 398.054688 C 1096.808594 384.917969 1102.246094 368.027344 1123.886719 312.742188 L 1131.039062 294.472656 L 1208.355469 293.910156 C 1268.566406 293.46875 1286.152344 293.949219 1287.855469 296.058594 C 1289.0625 297.550781 1295.078125 312.796875 1301.226562 329.9375 C 1307.378906 347.078125 1314.765625 367.6875 1317.648438 375.738281 C 1328.34375 405.582031 1326.160156 418.816406 1309.453125 425.503906 C 1304.960938 427.300781 1301.28125 429.285156 1301.28125 429.910156 C 1301.28125 430.539062 1326.914062 430.941406 1358.238281 430.808594 C 1410.277344 430.585938 1422.753906 429.347656 1410.886719 425.578125 C 1404.285156 423.484375 1393.890625 413.972656 1387.996094 404.632812 C 1382.484375 395.90625 1362.964844 349.351562 1353.632812 322.675781 C 1340.503906 285.160156 1333.566406 265.773438 1329.6875 255.785156 C 1327.394531 249.875 1319.140625 228.113281 1311.34375 207.425781 C 1260.378906 72.167969 1256.691406 63.601562 1243.570312 49.804688 C 1231.339844 36.953125 1221.230469 32.683594 1201.339844 31.980469 C 1191.882812 31.640625 1180.503906 32.28125 1176.050781 33.398438 M 357.726562 56.230469 C 357.726562 57.003906 361.632812 60.976562 366.398438 65.058594 C 371.164062 69.144531 377.164062 76.488281 379.722656 81.382812 C 384.90625 91.304688 384.726562 87.027344 386.523438 243.964844 C 387.511719 330.570312 388.933594 341.535156 402.8125 369.699219 C 419.109375 402.769531 451.589844 428.515625 484 434.054688 C 523.625 440.820312 557.796875 441.691406 577.949219 436.441406 C 624.757812 424.25 659.082031 390.324219 670.59375 344.871094 C 674.222656 330.539062 674.570312 319.589844 676.636719 154.769531 C 677.546875 82.441406 678.195312 77.242188 687.945312 64.101562 C 690.738281 60.339844 693.023438 56.710938 693.023438 56.042969 C 693.023438 55.371094 680.933594 54.824219 666.15625 54.824219 C 649.675781 54.824219 639.289062 55.65625 639.289062 56.972656 C 639.289062 58.15625 640.222656 59.125 641.363281 59.125 C 642.503906 59.125 646.773438 62.054688 650.851562 65.632812 C 662.839844 76.160156 663.476562 84.308594 662.480469 214.949219 L 661.609375 328.863281 L 655.691406 348.160156 C 648.605469 371.253906 641.328125 385.214844 630.976562 395.566406 C 620.742188 405.804688 602.425781 416.050781 588.648438 419.253906 C 571.644531 423.207031 528.90625 423.136719 513.714844 419.128906 C 479.351562 410.066406 457.839844 387.601562 447.6875 350.171875 C 443.332031 334.121094 443.015625 327.152344 442.089844 226.730469 C 440.972656 105.964844 442.175781 86.824219 451.742188 73.316406 C 455.003906 68.710938 460.789062 63.285156 464.597656 61.257812 C 468.410156 59.234375 470.910156 56.957031 470.152344 56.199219 C 468.335938 54.382812 357.726562 54.410156 357.726562 56.230469 M 822.378906 65.28125 C 820.097656 66.726562 819.648438 84.882812 820.070312 158.851562 C 820.355469 209.328125 821.390625 251.121094 822.363281 251.722656 C 826.066406 254.011719 881.699219 252.925781 894.867188 250.308594 C 904.847656 248.324219 912.648438 244.847656 923.171875 237.6875 C 950.824219 218.886719 961.363281 199.34375 963.253906 163.367188 C 964.644531 136.832031 960.765625 119.742188 949.484375 102.746094 C 935.898438 82.28125 917.207031 71.515625 886.460938 66.449219 C 866.457031 63.152344 826.871094 62.429688 822.378906 65.28125 M 167.507812 96.199219 C 166.992188 97.675781 158.207031 121.613281 147.992188 149.394531 C 113.847656 242.238281 101.863281 275.113281 101.371094 277.28125 C 101.054688 278.671875 125.386719 279.628906 170.199219 279.996094 C 224.921875 280.445312 239.515625 279.992188 239.515625 277.847656 C 239.511719 274.976562 231.851562 253.074219 214.132812 205.277344 C 208.214844 189.320312 198.410156 162.71875 192.347656 146.171875 C 176.230469 102.207031 172.609375 93.511719 170.417969 93.511719 C 169.335938 93.511719 168.027344 94.722656 167.507812 96.199219 M 1205.527344 98.347656 C 1203.84375 103.863281 1201.632812 109.621094 1159.046875 219.246094 C 1140.320312 267.449219 1137.933594 274.015625 1137.933594 277.304688 C 1137.933594 280.074219 1147.46875 280.503906 1208.859375 280.503906 C 1270.433594 280.503906 1279.789062 280.078125 1279.789062 277.285156 C 1279.789062 274.273438 1255.890625 209.375 1230.320312 142.945312 C 1224.179688 126.988281 1217.5625 109.347656 1215.617188 103.742188 C 1211.800781 92.738281 1207.875 90.640625 1205.527344 98.347656" fill-opacity="1" fill-rule="evenodd"/>
  </g>
  
  <!-- VILLAS BALI text in white -->
  <g transform="scale(0.3) translate(160, 260)">
    <text x="0" y="0" font-family="Inter, sans-serif" font-size="90" font-weight="500" fill="#ffffff" letter-spacing="0.3em">VILLAS BALI</text>
  </g>
</svg>