<svg xmlns="http://www.w3.org/2000/svg" xmlns:xlink="http://www.w3.org/1999/xlink" width="94" zoomAndPan="magnify" viewBox="0 0 70.5 31.5" height="42" preserveAspectRatio="xMidYMid meet" version="1.0"><defs><g/><clipPath id="c12daaebe8"><path d="M 1.03125 1 L 69 1 L 69 25 L 1.03125 25 Z M 1.03125 1 " clip-rule="nonzero"/></clipPath><clipPath id="c745569e0b"><path d="M 10 25 L 69.703125 25 L 69.703125 31.007812 L 10 31.007812 Z M 10 25 " clip-rule="nonzero"/></clipPath><clipPath id="be6a6b9b3d"><path d="M 1 0.515625 L 5 0.515625 L 5 6 L 1 6 Z M 1 0.515625 " clip-rule="nonzero"/></clipPath><clipPath id="f6e48d885b"><path d="M 7 0.515625 L 9 0.515625 L 9 6 L 7 6 Z M 7 0.515625 " clip-rule="nonzero"/></clipPath><clipPath id="29727ce63c"><path d="M 12 0.515625 L 15 0.515625 L 15 6 L 12 6 Z M 12 0.515625 " clip-rule="nonzero"/></clipPath><clipPath id="ed42839f93"><path d="M 17 0.515625 L 21 0.515625 L 21 6 L 17 6 Z M 17 0.515625 " clip-rule="nonzero"/></clipPath><clipPath id="ea3fc936d5"><path d="M 22 0.515625 L 27 0.515625 L 27 6 L 22 6 Z M 22 0.515625 " clip-rule="nonzero"/></clipPath><clipPath id="3db08d5923"><path d="M 29 0.515625 L 33 0.515625 L 33 6 L 29 6 Z M 29 0.515625 " clip-rule="nonzero"/></clipPath><clipPath id="819ca7d390"><path d="M 39 0.515625 L 43 0.515625 L 43 6 L 39 6 Z M 39 0.515625 " clip-rule="nonzero"/></clipPath><clipPath id="02e7147902"><path d="M 45 0.515625 L 50 0.515625 L 50 6 L 45 6 Z M 45 0.515625 " clip-rule="nonzero"/></clipPath><clipPath id="51adf90216"><path d="M 52 0.515625 L 55 0.515625 L 55 6 L 52 6 Z M 52 0.515625 " clip-rule="nonzero"/></clipPath><clipPath id="01de126b87"><path d="M 57 0.515625 L 59 0.515625 L 59 6 L 57 6 Z M 57 0.515625 " clip-rule="nonzero"/></clipPath><clipPath id="a1f8e08ec8"><rect x="0" width="60" y="0" height="7"/></clipPath></defs><g clip-path="url(#c12daaebe8)"><path fill="#c96f4a" d="M 6.910156 1.453125 C 6 1.636719 5.992188 1.6875 6.84375 1.90625 C 7.941406 2.195312 8.65625 2.917969 8.65625 3.746094 C 8.65625 3.96875 8.246094 5.199219 7.636719 6.808594 C 6.324219 10.28125 5.570312 12.285156 4.597656 14.886719 C 3.347656 18.238281 3.109375 18.820312 2.84375 19.171875 C 2.476562 19.65625 1.980469 20.097656 1.597656 20.28125 C 1.417969 20.367188 1.265625 20.484375 1.265625 20.535156 C 1.265625 20.597656 2.140625 20.636719 3.472656 20.636719 C 4.6875 20.636719 5.679688 20.613281 5.679688 20.585938 C 5.679688 20.558594 5.503906 20.449219 5.292969 20.339844 C 4.5625 19.960938 4.035156 19.183594 4.035156 18.472656 C 4.035156 18.121094 4.652344 16.242188 5.191406 14.941406 L 5.535156 14.117188 L 9.183594 14.09375 C 12.597656 14.066406 12.839844 14.078125 12.894531 14.246094 C 13.0625 14.773438 13.386719 15.683594 13.46875 15.863281 C 13.519531 15.976562 13.773438 16.585938 14.03125 17.21875 C 14.636719 18.699219 15.355469 20.015625 16.152344 21.097656 C 17.082031 22.367188 18.933594 23.8125 20.351562 24.378906 C 21.03125 24.652344 22.96875 24.714844 23.84375 24.492188 C 24.785156 24.25 24.796875 24.148438 23.867188 24.203125 C 21.441406 24.34375 19.628906 23.070312 18.039062 20.101562 C 17.546875 19.183594 16.632812 16.953125 15.101562 12.9375 C 14.875 12.347656 14.59375 11.628906 14.480469 11.347656 C 14.363281 11.066406 14.164062 10.535156 14.035156 10.167969 C 13.90625 9.800781 13.515625 8.761719 13.167969 7.859375 C 12.820312 6.957031 12.355469 5.722656 12.136719 5.113281 C 11.613281 3.667969 11.300781 3.066406 10.78125 2.503906 C 10.34375 2.03125 9.660156 1.621094 9.117188 1.511719 C 8.542969 1.390625 7.375 1.363281 6.910156 1.453125 M 57.164062 1.652344 C 56.953125 1.707031 56.582031 1.851562 56.34375 1.976562 L 55.910156 2.207031 L 56.496094 2.285156 C 56.820312 2.328125 57.210938 2.429688 57.367188 2.515625 C 57.957031 2.839844 58.042969 2.960938 58.089844 3.523438 C 58.132812 4.023438 58.015625 4.371094 56.496094 8.320312 C 55.59375 10.664062 54.691406 13.0625 54.488281 13.65625 C 54.019531 15.042969 52.65625 18.644531 52.445312 19.042969 C 52.246094 19.425781 51.808594 19.839844 51.375 20.058594 C 50.382812 20.558594 49.859375 20.078125 47.839844 16.804688 C 46.671875 14.910156 45.195312 12.410156 45.1875 12.3125 C 45.1875 12.28125 45.464844 12.175781 45.808594 12.082031 C 46.601562 11.859375 47.738281 11.289062 48.207031 10.878906 C 48.6875 10.457031 49.109375 9.820312 49.398438 9.078125 C 49.589844 8.597656 49.636719 8.273438 49.636719 7.5 C 49.636719 6.59375 49.613281 6.480469 49.300781 5.890625 C 48.644531 4.664062 47.613281 3.867188 45.902344 3.273438 C 44.582031 2.8125 43.960938 2.753906 40.082031 2.710938 C 38.035156 2.6875 36.359375 2.699219 36.359375 2.734375 C 36.359375 2.773438 36.546875 2.972656 36.777344 3.175781 C 37.042969 3.414062 37.238281 3.699219 37.308594 3.960938 C 37.46875 4.527344 37.542969 18.046875 37.390625 18.863281 C 37.265625 19.535156 36.878906 20.09375 36.378906 20.320312 C 36.199219 20.402344 36.050781 20.503906 36.050781 20.550781 C 36.050781 20.597656 37.300781 20.628906 38.824219 20.617188 C 40.347656 20.609375 41.59375 20.570312 41.59375 20.527344 C 41.59375 20.488281 41.453125 20.394531 41.28125 20.324219 C 40.859375 20.152344 40.507812 19.667969 40.355469 19.058594 C 40.273438 18.726562 40.226562 17.5625 40.21875 15.621094 L 40.207031 12.683594 L 42.554688 12.683594 L 43.183594 13.707031 C 43.527344 14.273438 44.265625 15.472656 44.824219 16.375 C 45.382812 17.28125 46.15625 18.570312 46.546875 19.25 C 46.9375 19.925781 47.308594 20.515625 47.375 20.554688 C 47.554688 20.667969 54.316406 20.652344 54.316406 20.539062 C 54.316406 20.488281 54.234375 20.417969 54.132812 20.382812 C 54.027344 20.351562 53.808594 20.183594 53.644531 20.011719 C 53.375 19.730469 53.347656 19.636719 53.363281 19.0625 C 53.382812 18.4375 53.640625 17.628906 54.671875 14.992188 L 55.015625 14.117188 L 58.707031 14.09375 C 61.582031 14.070312 62.421875 14.09375 62.503906 14.195312 C 62.558594 14.265625 62.847656 14.992188 63.140625 15.8125 C 63.433594 16.628906 63.785156 17.613281 63.925781 18 C 64.433594 19.421875 64.332031 20.054688 63.535156 20.375 C 63.320312 20.460938 63.144531 20.554688 63.144531 20.585938 C 63.144531 20.613281 64.367188 20.632812 65.863281 20.628906 C 68.347656 20.617188 68.941406 20.558594 68.375 20.378906 C 68.0625 20.277344 67.566406 19.824219 67.28125 19.378906 C 67.019531 18.960938 66.089844 16.738281 65.640625 15.464844 C 65.015625 13.675781 64.683594 12.75 64.5 12.273438 C 64.390625 11.988281 63.996094 10.949219 63.625 9.960938 C 61.191406 3.503906 61.015625 3.097656 60.386719 2.4375 C 59.804688 1.824219 59.320312 1.621094 58.371094 1.585938 C 57.921875 1.570312 57.375 1.601562 57.164062 1.652344 M 18.09375 2.746094 C 18.09375 2.78125 18.28125 2.972656 18.507812 3.164062 C 18.738281 3.359375 19.023438 3.710938 19.144531 3.945312 C 19.390625 4.417969 19.382812 4.214844 19.46875 11.707031 C 19.515625 15.84375 19.585938 16.367188 20.246094 17.710938 C 21.027344 19.289062 22.578125 20.519531 24.125 20.78125 C 26.015625 21.105469 27.648438 21.148438 28.609375 20.898438 C 30.84375 20.316406 32.484375 18.695312 33.03125 16.523438 C 33.207031 15.839844 33.222656 15.316406 33.320312 7.449219 C 33.363281 3.996094 33.394531 3.746094 33.859375 3.121094 C 33.992188 2.941406 34.101562 2.765625 34.101562 2.734375 C 34.101562 2.703125 33.527344 2.675781 32.820312 2.675781 C 32.035156 2.675781 31.539062 2.71875 31.539062 2.78125 C 31.539062 2.835938 31.582031 2.882812 31.636719 2.882812 C 31.691406 2.882812 31.894531 3.023438 32.089844 3.191406 C 32.660156 3.695312 32.691406 4.085938 32.644531 10.320312 L 32.601562 15.761719 L 32.320312 16.683594 C 31.984375 17.785156 31.636719 18.449219 31.140625 18.945312 C 30.652344 19.433594 29.777344 19.921875 29.121094 20.074219 C 28.308594 20.265625 26.269531 20.261719 25.542969 20.070312 C 23.902344 19.636719 22.875 18.566406 22.390625 16.777344 C 22.183594 16.011719 22.167969 15.679688 22.121094 10.882812 C 22.070312 5.117188 22.125 4.203125 22.582031 3.558594 C 22.738281 3.339844 23.015625 3.082031 23.199219 2.984375 C 23.378906 2.886719 23.5 2.777344 23.460938 2.742188 C 23.375 2.65625 18.09375 2.65625 18.09375 2.746094 M 40.277344 3.175781 C 40.171875 3.246094 40.148438 4.113281 40.167969 7.644531 C 40.183594 10.054688 40.230469 12.050781 40.277344 12.078125 C 40.453125 12.1875 43.109375 12.136719 43.738281 12.011719 C 44.214844 11.914062 44.589844 11.75 45.089844 11.40625 C 46.410156 10.511719 46.914062 9.578125 47.003906 7.859375 C 47.070312 6.59375 46.886719 5.777344 46.347656 4.964844 C 45.699219 3.988281 44.804688 3.472656 43.339844 3.230469 C 42.382812 3.074219 40.492188 3.039062 40.277344 3.175781 M 9.011719 4.652344 C 8.988281 4.722656 8.570312 5.867188 8.082031 7.191406 C 6.453125 11.625 5.878906 13.195312 5.855469 13.296875 C 5.839844 13.363281 7.003906 13.410156 9.140625 13.425781 C 11.753906 13.449219 12.449219 13.425781 12.449219 13.324219 C 12.449219 13.1875 12.085938 12.140625 11.238281 9.859375 C 10.957031 9.097656 10.488281 7.828125 10.199219 7.039062 C 9.429688 4.9375 9.257812 4.523438 9.152344 4.523438 C 9.101562 4.523438 9.039062 4.582031 9.011719 4.652344 M 58.570312 4.753906 C 58.492188 5.019531 58.386719 5.292969 56.351562 10.527344 C 55.457031 12.828125 55.34375 13.140625 55.34375 13.300781 C 55.34375 13.429688 55.800781 13.453125 58.730469 13.453125 C 61.671875 13.453125 62.117188 13.429688 62.117188 13.296875 C 62.117188 13.15625 60.976562 10.054688 59.753906 6.882812 C 59.460938 6.121094 59.144531 5.28125 59.054688 5.011719 C 58.871094 4.488281 58.683594 4.386719 58.570312 4.753906 " fill-opacity="1" fill-rule="evenodd"/></g><g clip-path="url(#c745569e0b)"><g transform="matrix(1, 0, 0, 1, 10, 25)"><g clip-path="url(#a1f8e08ec8)"><g clip-path="url(#be6a6b9b3d)"><g fill="#2f4a3c" fill-opacity="1"><g transform="translate(1.26512, 5.181973)"><g><path d="M 1.375 0 L -0.109375 -4.4375 L 0.5625 -4.4375 L 1.78125 -0.734375 L 1.796875 -0.734375 L 3.015625 -4.4375 L 3.6875 -4.4375 L 2.171875 0 Z M 1.375 0 "/></g></g></g></g><g clip-path="url(#f6e48d885b)"><g fill="#2f4a3c" fill-opacity="1"><g transform="translate(7.435462, 5.181973)"><g><path d="M 0.515625 0 L 0.515625 -4.4375 L 1.15625 -4.4375 L 1.15625 0 Z M 0.515625 0 "/></g></g></g></g><g clip-path="url(#29727ce63c)"><g fill="#2f4a3c" fill-opacity="1"><g transform="translate(11.692977, 5.181973)"><g><path d="M 0.515625 0 L 0.515625 -4.4375 L 1.15625 -4.4375 L 1.15625 -0.515625 L 2.859375 -0.515625 L 2.859375 0 Z M 0.515625 0 "/></g></g></g></g><g clip-path="url(#ed42839f93)"><g fill="#2f4a3c" fill-opacity="1"><g transform="translate(17.141983, 5.181973)"><g><path d="M 0.515625 0 L 0.515625 -4.4375 L 1.15625 -4.4375 L 1.15625 -0.515625 L 2.859375 -0.515625 L 2.859375 0 Z M 0.515625 0 "/></g></g></g></g><g clip-path="url(#ea3fc936d5)"><g fill="#2f4a3c" fill-opacity="1"><g transform="translate(22.590989, 5.181973)"><g><path d="M 1.96875 -3.84375 L 1.3125 -1.78125 L 2.59375 -1.78125 Z M 3.203125 0 L 2.765625 -1.265625 L 1.171875 -1.265625 L 0.734375 0 L 0.0625 0 L 1.578125 -4.4375 L 2.359375 -4.4375 L 3.875 0 Z M 3.203125 0 "/></g></g></g></g><g clip-path="url(#3db08d5923)"><g fill="#2f4a3c" fill-opacity="1"><g transform="translate(29.115558, 5.181973)"><g><path d="M 0.328125 -0.765625 C 0.503906 -0.671875 0.691406 -0.59375 0.890625 -0.53125 C 1.097656 -0.46875 1.300781 -0.4375 1.5 -0.4375 C 1.601562 -0.4375 1.707031 -0.445312 1.8125 -0.46875 C 1.914062 -0.5 2.003906 -0.539062 2.078125 -0.59375 C 2.160156 -0.644531 2.222656 -0.710938 2.265625 -0.796875 C 2.316406 -0.878906 2.34375 -0.976562 2.34375 -1.09375 C 2.34375 -1.21875 2.320312 -1.320312 2.28125 -1.40625 C 2.238281 -1.488281 2.179688 -1.5625 2.109375 -1.625 C 2.046875 -1.6875 1.96875 -1.742188 1.875 -1.796875 C 1.789062 -1.847656 1.707031 -1.898438 1.625 -1.953125 L 1.21875 -2.1875 C 1.09375 -2.257812 0.972656 -2.332031 0.859375 -2.40625 C 0.742188 -2.476562 0.640625 -2.554688 0.546875 -2.640625 C 0.460938 -2.734375 0.390625 -2.835938 0.328125 -2.953125 C 0.273438 -3.066406 0.25 -3.203125 0.25 -3.359375 C 0.25 -3.578125 0.289062 -3.757812 0.375 -3.90625 C 0.46875 -4.050781 0.582031 -4.164062 0.71875 -4.25 C 0.851562 -4.34375 1.007812 -4.410156 1.1875 -4.453125 C 1.363281 -4.492188 1.546875 -4.515625 1.734375 -4.515625 C 2.066406 -4.515625 2.40625 -4.472656 2.75 -4.390625 L 2.75 -3.78125 C 2.570312 -3.832031 2.394531 -3.878906 2.21875 -3.921875 C 2.050781 -3.972656 1.878906 -4 1.703125 -4 C 1.609375 -4 1.515625 -3.988281 1.421875 -3.96875 C 1.335938 -3.945312 1.257812 -3.910156 1.1875 -3.859375 C 1.125 -3.816406 1.070312 -3.757812 1.03125 -3.6875 C 0.988281 -3.613281 0.96875 -3.523438 0.96875 -3.421875 C 0.96875 -3.328125 0.988281 -3.242188 1.03125 -3.171875 C 1.082031 -3.097656 1.144531 -3.03125 1.21875 -2.96875 C 1.300781 -2.90625 1.382812 -2.847656 1.46875 -2.796875 C 1.550781 -2.753906 1.625 -2.710938 1.6875 -2.671875 L 2.125 -2.421875 C 2.25 -2.335938 2.367188 -2.257812 2.484375 -2.1875 C 2.597656 -2.113281 2.695312 -2.03125 2.78125 -1.9375 C 2.863281 -1.84375 2.929688 -1.734375 2.984375 -1.609375 C 3.035156 -1.492188 3.0625 -1.351562 3.0625 -1.1875 C 3.0625 -0.957031 3.015625 -0.757812 2.921875 -0.59375 C 2.828125 -0.4375 2.707031 -0.304688 2.5625 -0.203125 C 2.414062 -0.109375 2.242188 -0.0390625 2.046875 0 C 1.847656 0.0507812 1.648438 0.078125 1.453125 0.078125 C 1.265625 0.078125 1.070312 0.0625 0.875 0.03125 C 0.6875 0 0.503906 -0.046875 0.328125 -0.109375 Z M 0.328125 -0.765625 "/></g></g></g></g><g fill="#2f4a3c" fill-opacity="1"><g transform="translate(34.925233, 5.181973)"><g/></g></g><g clip-path="url(#819ca7d390)"><g fill="#2f4a3c" fill-opacity="1"><g transform="translate(39.421048, 5.181973)"><g><path d="M 1.65625 -0.515625 C 1.769531 -0.515625 1.878906 -0.53125 1.984375 -0.5625 C 2.097656 -0.59375 2.191406 -0.640625 2.265625 -0.703125 C 2.347656 -0.765625 2.410156 -0.84375 2.453125 -0.9375 C 2.503906 -1.03125 2.53125 -1.144531 2.53125 -1.28125 C 2.53125 -1.414062 2.503906 -1.535156 2.453125 -1.640625 C 2.398438 -1.742188 2.332031 -1.828125 2.25 -1.890625 C 2.164062 -1.960938 2.066406 -2.007812 1.953125 -2.03125 C 1.847656 -2.0625 1.726562 -2.078125 1.59375 -2.078125 L 1.15625 -2.078125 L 1.15625 -0.515625 Z M 1.5625 -2.59375 C 1.789062 -2.59375 1.972656 -2.644531 2.109375 -2.75 C 2.242188 -2.851562 2.3125 -3.023438 2.3125 -3.265625 C 2.3125 -3.398438 2.289062 -3.507812 2.25 -3.59375 C 2.207031 -3.6875 2.148438 -3.753906 2.078125 -3.796875 C 2.015625 -3.847656 1.9375 -3.878906 1.84375 -3.890625 C 1.75 -3.910156 1.644531 -3.921875 1.53125 -3.921875 L 1.15625 -3.921875 L 1.15625 -2.59375 Z M 0.515625 0 L 0.515625 -4.4375 L 1.796875 -4.4375 C 1.960938 -4.4375 2.113281 -4.414062 2.25 -4.375 C 2.394531 -4.332031 2.519531 -4.265625 2.625 -4.171875 C 2.726562 -4.085938 2.804688 -3.976562 2.859375 -3.84375 C 2.921875 -3.71875 2.953125 -3.566406 2.953125 -3.390625 C 2.953125 -2.890625 2.722656 -2.550781 2.265625 -2.375 L 2.265625 -2.359375 C 2.566406 -2.316406 2.789062 -2.1875 2.9375 -1.96875 C 3.09375 -1.757812 3.171875 -1.507812 3.171875 -1.21875 C 3.171875 -0.988281 3.132812 -0.796875 3.0625 -0.640625 C 2.988281 -0.484375 2.882812 -0.359375 2.75 -0.265625 C 2.625 -0.171875 2.472656 -0.101562 2.296875 -0.0625 C 2.128906 -0.0195312 1.945312 0 1.75 0 Z M 0.515625 0 "/></g></g></g></g><g clip-path="url(#02e7147902)"><g fill="#2f4a3c" fill-opacity="1"><g transform="translate(45.469019, 5.181973)"><g><path d="M 1.96875 -3.84375 L 1.3125 -1.78125 L 2.59375 -1.78125 Z M 3.203125 0 L 2.765625 -1.265625 L 1.171875 -1.265625 L 0.734375 0 L 0.0625 0 L 1.578125 -4.4375 L 2.359375 -4.4375 L 3.875 0 Z M 3.203125 0 "/></g></g></g></g><g clip-path="url(#51adf90216)"><g fill="#2f4a3c" fill-opacity="1"><g transform="translate(51.99359, 5.181973)"><g><path d="M 0.515625 0 L 0.515625 -4.4375 L 1.15625 -4.4375 L 1.15625 -0.515625 L 2.859375 -0.515625 L 2.859375 0 Z M 0.515625 0 "/></g></g></g></g><g clip-path="url(#01de126b87)"><g fill="#2f4a3c" fill-opacity="1"><g transform="translate(57.442596, 5.181973)"><g><path d="M 0.515625 0 L 0.515625 -4.4375 L 1.15625 -4.4375 L 1.15625 0 Z M 0.515625 0 "/></g></g></g></g></g></g></g></svg>