<svg xmlns="http://www.w3.org/2000/svg" xmlns:xlink="http://www.w3.org/1999/xlink" width="134" zoomAndPan="magnify" viewBox="0 0 100.5 44.999999" height="60" preserveAspectRatio="xMidYMid meet" version="1.0"><defs><g/><clipPath id="c4726ace80"><path d="M 15 36 L 100.003906 36 L 100.003906 44.886719 L 15 44.886719 Z M 15 36 " clip-rule="nonzero"/></clipPath><clipPath id="1c98586514"><path d="M 0.523438 1 L 7 1 L 7 8 L 0.523438 8 Z M 0.523438 1 " clip-rule="nonzero"/></clipPath><clipPath id="82439a4779"><rect x="0" width="86" y="0" height="9"/></clipPath></defs><path fill="#c96f4a" d="M 9.433594 2.210938 C 8.117188 2.472656 8.105469 2.546875 9.335938 2.867188 C 10.921875 3.28125 11.953125 4.324219 11.953125 5.519531 C 11.953125 5.84375 11.359375 7.621094 10.480469 9.945312 C 8.585938 14.957031 7.5 17.851562 6.09375 21.613281 C 4.289062 26.449219 3.945312 27.289062 3.558594 27.796875 C 3.027344 28.5 2.3125 29.136719 1.761719 29.398438 C 1.5 29.523438 1.28125 29.691406 1.28125 29.769531 C 1.28125 29.855469 2.546875 29.910156 4.46875 29.910156 C 6.21875 29.910156 7.652344 29.878906 7.652344 29.839844 C 7.652344 29.800781 7.402344 29.640625 7.097656 29.480469 C 6.042969 28.941406 5.28125 27.8125 5.28125 26.789062 C 5.28125 26.28125 6.171875 23.566406 6.953125 21.6875 L 7.445312 20.5 L 12.71875 20.460938 C 17.644531 20.425781 17.996094 20.441406 18.074219 20.683594 C 18.316406 21.441406 18.785156 22.761719 18.902344 23.019531 C 18.976562 23.183594 19.34375 24.0625 19.714844 24.976562 C 20.589844 27.113281 21.628906 29.015625 22.777344 30.578125 C 24.125 32.410156 26.792969 34.5 28.84375 35.320312 C 29.828125 35.714844 32.625 35.800781 33.886719 35.476562 C 35.246094 35.128906 35.261719 34.988281 33.921875 35.0625 C 30.414062 35.265625 27.800781 33.425781 25.503906 29.140625 C 24.792969 27.816406 23.46875 24.59375 21.257812 18.796875 C 20.933594 17.941406 20.527344 16.90625 20.363281 16.5 C 20.195312 16.09375 19.90625 15.324219 19.71875 14.796875 C 19.535156 14.265625 18.96875 12.765625 18.46875 11.460938 C 17.96875 10.15625 17.296875 8.375 16.980469 7.496094 C 16.222656 5.410156 15.769531 4.539062 15.023438 3.730469 C 14.390625 3.046875 13.40625 2.457031 12.617188 2.292969 C 11.792969 2.121094 10.101562 2.078125 9.433594 2.210938 M 82.003906 2.5 C 81.695312 2.578125 81.164062 2.789062 80.816406 2.96875 L 80.191406 3.296875 L 81.039062 3.410156 C 81.503906 3.472656 82.070312 3.625 82.296875 3.746094 C 83.144531 4.210938 83.273438 4.390625 83.34375 5.199219 C 83.402344 5.921875 83.234375 6.425781 81.035156 12.128906 C 79.734375 15.511719 78.429688 18.976562 78.140625 19.832031 C 77.464844 21.835938 75.492188 27.035156 75.1875 27.613281 C 74.902344 28.164062 74.269531 28.761719 73.640625 29.078125 C 72.210938 29.800781 71.457031 29.105469 68.539062 24.378906 C 66.851562 21.640625 64.71875 18.03125 64.710938 17.894531 C 64.707031 17.847656 65.109375 17.695312 65.605469 17.558594 C 66.746094 17.238281 68.390625 16.417969 69.070312 15.820312 C 69.761719 15.210938 70.371094 14.292969 70.789062 13.222656 C 71.0625 12.53125 71.132812 12.0625 71.132812 10.941406 C 71.136719 9.632812 71.101562 9.472656 70.648438 8.621094 C 69.699219 6.84375 68.214844 5.699219 65.742188 4.839844 C 63.832031 4.175781 62.9375 4.089844 57.332031 4.027344 C 54.378906 3.992188 51.960938 4.007812 51.960938 4.0625 C 51.960938 4.117188 52.230469 4.402344 52.5625 4.699219 C 52.945312 5.039062 53.226562 5.453125 53.332031 5.832031 C 53.558594 6.652344 53.667969 26.175781 53.449219 27.351562 C 53.269531 28.320312 52.707031 29.132812 51.988281 29.457031 C 51.726562 29.570312 51.515625 29.722656 51.515625 29.789062 C 51.515625 29.855469 53.316406 29.898438 55.515625 29.886719 C 57.71875 29.875 59.519531 29.816406 59.519531 29.757812 C 59.519531 29.699219 59.316406 29.566406 59.066406 29.460938 C 58.460938 29.210938 57.949219 28.515625 57.730469 27.632812 C 57.609375 27.15625 57.542969 25.476562 57.53125 22.667969 L 57.519531 18.425781 L 60.90625 18.425781 L 61.8125 19.90625 C 62.3125 20.722656 63.378906 22.457031 64.183594 23.761719 C 64.992188 25.066406 66.109375 26.929688 66.671875 27.910156 C 67.234375 28.886719 67.773438 29.734375 67.867188 29.796875 C 68.125 29.960938 77.894531 29.9375 77.894531 29.773438 C 77.894531 29.695312 77.773438 29.59375 77.625 29.546875 C 77.472656 29.5 77.160156 29.257812 76.921875 29.011719 C 76.53125 28.601562 76.492188 28.472656 76.515625 27.640625 C 76.539062 26.734375 76.914062 25.570312 78.40625 21.761719 L 78.898438 20.5 L 84.230469 20.460938 C 88.382812 20.429688 89.59375 20.464844 89.710938 20.609375 C 89.796875 20.710938 90.210938 21.765625 90.632812 22.945312 C 91.058594 24.128906 91.566406 25.546875 91.765625 26.101562 C 92.503906 28.160156 92.351562 29.074219 91.199219 29.535156 C 90.890625 29.660156 90.636719 29.796875 90.636719 29.839844 C 90.636719 29.882812 92.40625 29.910156 94.5625 29.898438 C 98.152344 29.882812 99.011719 29.800781 98.195312 29.539062 C 97.738281 29.394531 97.023438 28.738281 96.617188 28.09375 C 96.234375 27.492188 94.890625 24.285156 94.246094 22.445312 C 93.339844 19.859375 92.863281 18.523438 92.597656 17.832031 C 92.4375 17.425781 91.867188 15.925781 91.332031 14.5 C 87.816406 5.175781 87.5625 4.582031 86.660156 3.632812 C 85.816406 2.746094 85.117188 2.453125 83.746094 2.402344 C 83.09375 2.378906 82.308594 2.421875 82.003906 2.5 M 25.585938 4.074219 C 25.585938 4.128906 25.851562 4.402344 26.183594 4.683594 C 26.511719 4.964844 26.925781 5.472656 27.101562 5.808594 C 27.457031 6.492188 27.445312 6.199219 27.570312 17.019531 C 27.636719 22.988281 27.734375 23.746094 28.691406 25.6875 C 29.816406 27.96875 32.054688 29.742188 34.289062 30.125 C 37.023438 30.589844 39.378906 30.652344 40.765625 30.289062 C 43.996094 29.449219 46.359375 27.109375 47.15625 23.976562 C 47.40625 22.988281 47.429688 22.230469 47.570312 10.867188 C 47.632812 5.882812 47.679688 5.523438 48.351562 4.617188 C 48.542969 4.359375 48.699219 4.109375 48.699219 4.0625 C 48.699219 4.015625 47.867188 3.976562 46.847656 3.976562 C 45.710938 3.976562 44.996094 4.035156 44.996094 4.125 C 44.996094 4.207031 45.0625 4.273438 45.140625 4.273438 C 45.21875 4.273438 45.511719 4.476562 45.792969 4.722656 C 46.621094 5.449219 46.664062 6.011719 46.59375 15.019531 L 46.535156 22.871094 L 46.128906 24.203125 C 45.640625 25.792969 45.136719 26.757812 44.421875 27.46875 C 43.71875 28.175781 42.453125 28.882812 41.503906 29.101562 C 40.332031 29.375 37.386719 29.371094 36.339844 29.09375 C 33.96875 28.46875 32.488281 26.921875 31.785156 24.339844 C 31.484375 23.234375 31.464844 22.753906 31.402344 15.828125 C 31.324219 7.503906 31.40625 6.183594 32.066406 5.253906 C 32.289062 4.933594 32.691406 4.5625 32.953125 4.421875 C 33.214844 4.28125 33.386719 4.125 33.335938 4.074219 C 33.210938 3.949219 25.585938 3.949219 25.585938 4.074219 M 57.621094 4.699219 C 57.460938 4.796875 57.429688 6.050781 57.460938 11.148438 C 57.480469 14.628906 57.550781 17.511719 57.617188 17.554688 C 57.875 17.710938 61.710938 17.636719 62.617188 17.457031 C 63.304688 17.320312 63.84375 17.078125 64.570312 16.585938 C 66.476562 15.289062 67.203125 13.941406 67.332031 11.460938 C 67.429688 9.632812 67.160156 8.453125 66.382812 7.28125 C 65.445312 5.871094 64.15625 5.128906 62.039062 4.78125 C 60.660156 4.550781 57.929688 4.503906 57.621094 4.699219 M 12.46875 6.832031 C 12.433594 6.933594 11.828125 8.582031 11.125 10.5 C 8.769531 16.898438 7.945312 19.164062 7.910156 19.316406 C 7.886719 19.410156 9.566406 19.476562 12.65625 19.503906 C 16.429688 19.535156 17.433594 19.503906 17.433594 19.355469 C 17.433594 19.15625 16.90625 17.644531 15.683594 14.351562 C 15.277344 13.25 14.601562 11.417969 14.183594 10.277344 C 13.070312 7.246094 12.820312 6.644531 12.671875 6.644531 C 12.597656 6.644531 12.503906 6.730469 12.46875 6.832031 M 84.035156 6.980469 C 83.917969 7.359375 83.765625 7.753906 80.832031 15.3125 C 79.539062 18.636719 79.375 19.089844 79.375 19.316406 C 79.375 19.507812 80.03125 19.539062 84.265625 19.539062 C 88.511719 19.539062 89.15625 19.507812 89.15625 19.316406 C 89.15625 19.109375 87.507812 14.632812 85.746094 10.054688 C 85.320312 8.953125 84.867188 7.738281 84.730469 7.351562 C 84.46875 6.59375 84.199219 6.449219 84.035156 6.980469 " fill-opacity="1" fill-rule="evenodd"/><g clip-path="url(#c4726ace80)"><g transform="matrix(1, 0, 0, 1, 15, 36)"><g clip-path="url(#82439a4779)"><g clip-path="url(#1c98586514)"><g fill="#2f4a3c" fill-opacity="1"><g transform="translate(0.720942, 7.696048)"><g><path d="M 1.984375 0 L -0.15625 -6.421875 L 0.8125 -6.421875 L 2.5625 -1.0625 L 2.578125 -1.0625 L 4.34375 -6.421875 L 5.328125 -6.421875 L 3.140625 0 Z M 1.984375 0 "/></g></g></g></g><g fill="#2f4a3c" fill-opacity="1"><g transform="translate(9.631304, 7.696048)"><g><path d="M 0.75 0 L 0.75 -6.421875 L 1.671875 -6.421875 L 1.671875 0 Z M 0.75 0 "/></g></g></g><g fill="#2f4a3c" fill-opacity="1"><g transform="translate(15.779422, 7.696048)"><g><path d="M 0.75 0 L 0.75 -6.421875 L 1.671875 -6.421875 L 1.671875 -0.75 L 4.140625 -0.75 L 4.140625 0 Z M 0.75 0 "/></g></g></g><g fill="#2f4a3c" fill-opacity="1"><g transform="translate(23.64813, 7.696048)"><g><path d="M 0.75 0 L 0.75 -6.421875 L 1.671875 -6.421875 L 1.671875 -0.75 L 4.140625 -0.75 L 4.140625 0 Z M 0.75 0 "/></g></g></g><g fill="#2f4a3c" fill-opacity="1"><g transform="translate(31.516837, 7.696048)"><g><path d="M 2.859375 -5.5625 L 2.828125 -5.5625 L 1.90625 -2.578125 L 3.734375 -2.578125 Z M 4.625 0 L 3.984375 -1.828125 L 1.6875 -1.828125 L 1.0625 0 L 0.078125 0 L 2.265625 -6.421875 L 3.40625 -6.421875 L 5.609375 0 Z M 4.625 0 "/></g></g></g><g fill="#2f4a3c" fill-opacity="1"><g transform="translate(40.938725, 7.696048)"><g><path d="M 0.46875 -1.109375 C 0.726562 -0.960938 1.003906 -0.847656 1.296875 -0.765625 C 1.585938 -0.679688 1.878906 -0.640625 2.171875 -0.640625 C 2.328125 -0.640625 2.472656 -0.65625 2.609375 -0.6875 C 2.753906 -0.726562 2.882812 -0.785156 3 -0.859375 C 3.113281 -0.929688 3.207031 -1.023438 3.28125 -1.140625 C 3.351562 -1.265625 3.390625 -1.414062 3.390625 -1.59375 C 3.390625 -1.757812 3.359375 -1.898438 3.296875 -2.015625 C 3.234375 -2.140625 3.148438 -2.25 3.046875 -2.34375 C 2.953125 -2.4375 2.84375 -2.519531 2.71875 -2.59375 C 2.59375 -2.675781 2.472656 -2.753906 2.359375 -2.828125 L 1.765625 -3.171875 C 1.585938 -3.265625 1.414062 -3.363281 1.25 -3.46875 C 1.082031 -3.570312 0.929688 -3.6875 0.796875 -3.8125 C 0.671875 -3.9375 0.566406 -4.082031 0.484375 -4.25 C 0.410156 -4.425781 0.375 -4.628906 0.375 -4.859375 C 0.375 -5.171875 0.429688 -5.429688 0.546875 -5.640625 C 0.671875 -5.847656 0.832031 -6.015625 1.03125 -6.140625 C 1.238281 -6.273438 1.46875 -6.367188 1.71875 -6.421875 C 1.96875 -6.484375 2.226562 -6.515625 2.5 -6.515625 C 2.988281 -6.515625 3.472656 -6.453125 3.953125 -6.328125 L 3.953125 -5.453125 C 3.710938 -5.535156 3.46875 -5.609375 3.21875 -5.671875 C 2.96875 -5.734375 2.710938 -5.765625 2.453125 -5.765625 C 2.328125 -5.765625 2.195312 -5.75 2.0625 -5.71875 C 1.9375 -5.695312 1.820312 -5.648438 1.71875 -5.578125 C 1.625 -5.515625 1.546875 -5.425781 1.484375 -5.3125 C 1.421875 -5.207031 1.390625 -5.082031 1.390625 -4.9375 C 1.390625 -4.800781 1.425781 -4.679688 1.5 -4.578125 C 1.570312 -4.472656 1.660156 -4.375 1.765625 -4.28125 C 1.878906 -4.195312 1.992188 -4.117188 2.109375 -4.046875 C 2.234375 -3.972656 2.34375 -3.910156 2.4375 -3.859375 L 3.0625 -3.484375 C 3.25 -3.378906 3.425781 -3.269531 3.59375 -3.15625 C 3.757812 -3.050781 3.898438 -2.929688 4.015625 -2.796875 C 4.140625 -2.671875 4.238281 -2.519531 4.3125 -2.34375 C 4.382812 -2.164062 4.421875 -1.957031 4.421875 -1.71875 C 4.421875 -1.382812 4.351562 -1.097656 4.21875 -0.859375 C 4.09375 -0.628906 3.921875 -0.441406 3.703125 -0.296875 C 3.484375 -0.160156 3.234375 -0.0625 2.953125 0 C 2.671875 0.0703125 2.382812 0.109375 2.09375 0.109375 C 1.832031 0.109375 1.5625 0.0859375 1.28125 0.046875 C 1 0.00390625 0.726562 -0.0625 0.46875 -0.15625 Z M 0.46875 -1.109375 "/></g></g></g><g fill="#2f4a3c" fill-opacity="1"><g transform="translate(49.328261, 7.696048)"><g/></g></g><g fill="#2f4a3c" fill-opacity="1"><g transform="translate(55.820499, 7.696048)"><g><path d="M 2.390625 -0.75 C 2.566406 -0.75 2.726562 -0.769531 2.875 -0.8125 C 3.03125 -0.863281 3.164062 -0.929688 3.28125 -1.015625 C 3.394531 -1.109375 3.484375 -1.222656 3.546875 -1.359375 C 3.609375 -1.492188 3.640625 -1.65625 3.640625 -1.84375 C 3.640625 -2.039062 3.601562 -2.210938 3.53125 -2.359375 C 3.46875 -2.515625 3.375 -2.640625 3.25 -2.734375 C 3.132812 -2.828125 2.992188 -2.894531 2.828125 -2.9375 C 2.660156 -2.988281 2.484375 -3.015625 2.296875 -3.015625 L 1.671875 -3.015625 L 1.671875 -0.75 Z M 2.265625 -3.75 C 2.585938 -3.75 2.847656 -3.820312 3.046875 -3.96875 C 3.242188 -4.113281 3.34375 -4.363281 3.34375 -4.71875 C 3.34375 -4.914062 3.3125 -5.078125 3.25 -5.203125 C 3.195312 -5.328125 3.117188 -5.421875 3.015625 -5.484375 C 2.921875 -5.554688 2.800781 -5.601562 2.65625 -5.625 C 2.519531 -5.65625 2.367188 -5.671875 2.203125 -5.671875 L 1.671875 -5.671875 L 1.671875 -3.75 Z M 0.75 0 L 0.75 -6.421875 L 2.59375 -6.421875 C 2.832031 -6.421875 3.050781 -6.390625 3.25 -6.328125 C 3.457031 -6.265625 3.632812 -6.164062 3.78125 -6.03125 C 3.925781 -5.90625 4.039062 -5.742188 4.125 -5.546875 C 4.21875 -5.359375 4.265625 -5.140625 4.265625 -4.890625 C 4.265625 -4.160156 3.929688 -3.671875 3.265625 -3.421875 L 3.265625 -3.40625 C 3.710938 -3.34375 4.039062 -3.160156 4.25 -2.859375 C 4.46875 -2.554688 4.578125 -2.1875 4.578125 -1.75 C 4.578125 -1.425781 4.523438 -1.148438 4.421875 -0.921875 C 4.316406 -0.691406 4.171875 -0.507812 3.984375 -0.375 C 3.796875 -0.238281 3.578125 -0.140625 3.328125 -0.078125 C 3.078125 -0.0234375 2.804688 0 2.515625 0 Z M 0.75 0 "/></g></g></g><g fill="#2f4a3c" fill-opacity="1"><g transform="translate(64.55415, 7.696048)"><g><path d="M 2.859375 -5.5625 L 2.828125 -5.5625 L 1.90625 -2.578125 L 3.734375 -2.578125 Z M 4.625 0 L 3.984375 -1.828125 L 1.6875 -1.828125 L 1.0625 0 L 0.078125 0 L 2.265625 -6.421875 L 3.40625 -6.421875 L 5.609375 0 Z M 4.625 0 "/></g></g></g><g fill="#2f4a3c" fill-opacity="1"><g transform="translate(73.97604, 7.696048)"><g><path d="M 0.75 0 L 0.75 -6.421875 L 1.671875 -6.421875 L 1.671875 -0.75 L 4.140625 -0.75 L 4.140625 0 Z M 0.75 0 "/></g></g></g><g fill="#2f4a3c" fill-opacity="1"><g transform="translate(81.844748, 7.696048)"><g><path d="M 0.75 0 L 0.75 -6.421875 L 1.671875 -6.421875 L 1.671875 0 Z M 0.75 0 "/></g></g></g></g></g></g></svg>